<svg width="256" height="256" viewBox="0 0 256 256" fill="none" xmlns="http://www.w3.org/2000/svg">
<circle cx="128" cy="128" r="128" fill="#9B51E0"/>
<path d="M168.308 173.618H119.494V168.667C120.933 168.54 122.689 168.329 124.763 168.032C126.879 167.736 128.317 167.419 129.079 167.08C130.645 166.446 131.766 165.578 132.443 164.478C133.12 163.378 133.459 161.981 133.459 160.288V93.0032L102.482 172.158H94.4844C94.1036 170.762 93.1514 167.99 91.628 163.843C90.1469 159.696 88.9408 156.374 88.0098 153.877L65.2217 91.9875V146.768C65.2217 152.015 65.5603 156.014 66.2374 158.765C66.9568 161.473 68.0993 163.462 69.6651 164.732C70.723 165.62 72.6062 166.467 75.3145 167.271C78.0652 168.075 79.9906 168.54 81.0909 168.667V173.618H42.3702V168.667C43.4281 168.54 45.142 168.265 47.5118 167.842C49.9239 167.377 51.8917 166.594 53.4151 165.493C55.1078 164.309 56.2504 162.32 56.8428 159.527C57.4353 156.691 57.7315 152.671 57.7315 147.466V102.842C57.7315 100.134 57.393 97.8909 56.7159 96.1135C56.0388 94.2939 55.0232 92.8551 53.669 91.7971C51.9763 90.4853 50.2413 89.6389 48.4639 89.2581C46.6866 88.8772 44.8881 88.6233 43.0684 88.4963V83.5452H84.5186L106.735 143.023L125.461 94.717C126.096 92.9397 126.709 90.8238 127.302 88.3694C127.894 85.915 128.212 84.3069 128.254 83.5452H168.181V88.4963C166.827 88.581 165.409 88.7502 163.928 89.0042C162.447 89.2581 161.029 89.5966 159.675 90.0198C158.024 90.5699 156.924 91.4374 156.374 92.6223C155.866 93.8072 155.612 95.1191 155.612 96.5579V160.352C155.612 161.875 155.866 163.166 156.374 164.224C156.924 165.24 158.024 166.128 159.675 166.89C160.521 167.271 161.897 167.63 163.801 167.969C165.747 168.308 167.25 168.54 168.308 168.667V173.618ZM207.092 163.081C207.092 166.424 205.843 169.323 203.347 171.778C200.892 174.232 197.972 175.459 194.587 175.459C191.159 175.459 188.197 174.253 185.7 171.841C183.246 169.387 182.019 166.467 182.019 163.081C182.019 159.696 183.246 156.776 185.7 154.322C188.197 151.825 191.159 150.576 194.587 150.576C197.972 150.576 200.892 151.825 203.347 154.322C205.843 156.818 207.092 159.738 207.092 163.081Z" fill="white"/>
</svg>
